<svg xmlns="http://www.w3.org/2000/svg" width="19" height="19" viewBox="0 0 19 19"><path d="M4.453,7.593a3.155,3.155,0,0,0,3.154,3.148.741.741,0,1,1,0,1.481,4.63,4.63,0,1,1,4.639-4.63.742.742,0,0,1-1.484,0,3.154,3.154,0,0,0-6.309,0Zm.583,6.552c-1.9-2.081-3.549-3.879-3.552-6.559a6.123,6.123,0,0,1,12.246,0,.741.741,0,0,0,.742.74h0a.741.741,0,0,0,.741-.742A7.6,7.6,0,0,0,7.608,0,7.6,7.6,0,0,0,0,7.586,7.922,7.922,0,0,0,1.256,11.82,22.549,22.549,0,0,0,3.94,15.144a25.3,25.3,0,0,1,2.817,3.475.742.742,0,0,0,1.255-.792,26.44,26.44,0,0,0-2.976-3.682Zm13.769.355a.743.743,0,0,1-1.049.047l-.093-.085v2.451A2.091,2.091,0,0,1,15.575,19H11.4a2.091,2.091,0,0,1-2.089-2.087V14.5l-.056.051a.741.741,0,1,1-1-1.093l3.831-3.5a2.1,2.1,0,0,1,2.84,0l2.454,2.24a.742.742,0,0,1,.077.07l1.3,1.186a.74.74,0,0,1,.047,1.046ZM16.18,13.108l-2.254-2.056a.618.618,0,0,0-.837,0L10.8,13.142v3.772a.606.606,0,0,0,.605.605h4.171a.606.606,0,0,0,.605-.605Zm0,0" transform="translate(0 0)" fill="#594036"/></svg>