<svg xmlns="http://www.w3.org/2000/svg" width="16.743" height="20" viewBox="0 0 16.743 20"><path d="M16.742,14.6a11.613,11.613,0,0,1-1.478,3q-1.551,2.355-3.089,2.355a5.555,5.555,0,0,1-1.683-.384,5.316,5.316,0,0,0-1.815-.384,4.626,4.626,0,0,0-1.707.4A4.342,4.342,0,0,1,5.384,20q-1.827,0-3.618-3.113A12.327,12.327,0,0,1,0,10.841,7.129,7.129,0,0,1,1.358,6.346,4.171,4.171,0,0,1,4.772,4.615,8,8,0,0,1,6.9,4.976a7.74,7.74,0,0,0,1.659.361,6.012,6.012,0,0,0,1.719-.409,6.787,6.787,0,0,1,2.079-.409,4.393,4.393,0,0,1,2.56.781,6.206,6.206,0,0,1,1.25,1.2A7.79,7.79,0,0,0,14.8,7.92a4.281,4.281,0,0,0-.781,2.488,4.577,4.577,0,0,0,.829,2.68,3.655,3.655,0,0,0,1.9,1.514ZM12.223.5a4.583,4.583,0,0,1-.348,1.634A4.932,4.932,0,0,1,10.757,3.8a3.408,3.408,0,0,1-1.3.866,6.714,6.714,0,0,1-1.25.2,5.478,5.478,0,0,1,.938-3.089,4.788,4.788,0,0,1,3-1.779,1.114,1.114,0,0,1,.03.132,1.114,1.114,0,0,0,.03.132q0,.048.006.12t.006.12Z" fill="#fff"/></svg>