<svg xmlns="http://www.w3.org/2000/svg" width="26" height="26" viewBox="0 0 26 26"><path d="M21.352,26H4.424v0A4.577,4.577,0,0,1,0,21.416v-2.34a.958.958,0,0,1,.956-.962h3.25V.994A.955.955,0,0,1,5.8.274L8.472,2.656,11.152.245a.951.951,0,0,1,1.274,0L15.1,2.653,17.78.245a.951.951,0,0,1,1.274,0l2.68,2.411L24.411.274A.955.955,0,0,1,26,.994V21.416A4.576,4.576,0,0,1,21.443,26ZM6.117,18.113H17.843a.959.959,0,0,1,.956.962v2.34a2.645,2.645,0,1,0,5.289,0V3.128L22.364,4.664a.952.952,0,0,1-1.271,0L18.417,2.252,15.74,4.66a.951.951,0,0,1-1.274,0L11.789,2.253,9.113,4.66a.95.95,0,0,1-1.27,0L6.117,3.128Zm11.618,5.963a4.579,4.579,0,0,1-.848-2.661V20.037H1.912v1.379a2.656,2.656,0,0,0,2.645,2.661ZM10,15a.962.962,0,1,1,0-1.923H20.421a.962.962,0,1,1,0,1.923Zm0-4.487a.962.962,0,1,1,0-1.923h5.931a.962.962,0,0,1,0,1.923Z" transform="translate(0 0)" fill="#fff"/></svg>