<svg xmlns="http://www.w3.org/2000/svg" width="30" height="26" viewBox="0 0 30 26"><path d="M155.987,103.7a7.748,7.748,0,0,0-11.13,0l-1.541,1.578a.054.054,0,0,1-.04.017.053.053,0,0,1-.04-.017l-1.516-1.553a7.748,7.748,0,0,0-11.13,0,8.208,8.208,0,0,0,0,11.4l11.4,11.672a1.795,1.795,0,0,0,2.581,0l6.263-6.415c.345-.354,6.131-7.353,5.786-7.707s-6.691,6.073-7.036,6.426l-6.263,6.415a.054.054,0,0,1-.04.017.053.053,0,0,1-.04-.017l-11.4-11.672a6.364,6.364,0,0,1,0-8.838,6.007,6.007,0,0,1,8.629,0l1.516,1.553a1.795,1.795,0,0,0,2.581,0l1.541-1.578a6.008,6.008,0,0,1,8.629,0,6.364,6.364,0,0,1,0,8.838l-2.639,2.7c-.345.354-7.656,8.64-7.31,8.993s8.215-7.36,8.56-7.713l2.639-2.7A8.208,8.208,0,0,0,155.987,103.7Z" transform="translate(-128.288 -101.342)" fill="#fff"/></svg>