<svg xmlns="http://www.w3.org/2000/svg" width="30" height="30" viewBox="0 0 30 30"><g transform="translate(0 0.001)"><g transform="translate(0 -0.001)"><path d="M20.265,16.514A15.69,15.69,0,0,1,23.6,15.383a.586.586,0,1,0-.243-1.146,17.033,17.033,0,0,0-3.851,1.34c-.721-.86-1.546-1.759-2.436-2.649-.946-.946-1.9-1.819-2.81-2.571a13.238,13.238,0,0,0,1.913-3.324A17.368,17.368,0,0,0,17.315.585a.586.586,0,1,0-1.172,0,14.156,14.156,0,0,1-2.8,9.042c-.35-.267-.69-.513-1.014-.732C10.6,7.724,9.561,7.45,8.983,8.007l-.012.011,0,0h0a.964.964,0,0,0-.274.542L.045,29.186a.586.586,0,0,0,.767.767h0l20.622-8.648a.963.963,0,0,0,.5-.238l.029-.027.011-.01,0,0,.012-.012c.557-.578.283-1.612-.888-3.349C20.856,17.3,20.574,16.914,20.265,16.514ZM4.647,25.825a3.942,3.942,0,0,1-.525,1.47L1.68,28.319,4.16,22.4A6.51,6.51,0,0,1,4.647,25.825Zm3.606-1.983A3.754,3.754,0,0,1,7.212,26l-1.544.647a7.674,7.674,0,0,0-.893-5.708l1.756-4.187C8.353,20.206,8.489,22.495,8.253,23.842Zm2.09.844-1.263.53a5.916,5.916,0,0,0,.3-1.043c.469-2.394-.3-5.353-2.274-8.8l.634-1.512a9.947,9.947,0,0,1,1.305,2,.586.586,0,1,0,1.077-.463,11.118,11.118,0,0,0-1.881-2.728l.969-2.31c.17.311.38.652.632,1.026q.26.386.568.8a11.02,11.02,0,0,1,1.567,8.231A11.9,11.9,0,0,1,10.343,24.686Zm4.515-1.893-2.782,1.166a14.769,14.769,0,0,0,1.055-3.329,12.74,12.74,0,0,0-.112-5.387q.416.44.856.88c.876.876,1.761,1.69,2.609,2.4A5.805,5.805,0,0,1,14.858,22.793Zm2.02-.847a7.915,7.915,0,0,0,.714-2.53c.354.27.7.518,1.024.739.374.252.715.462,1.026.632Zm2.061-2.992A34.719,34.719,0,0,1,14.7,15.295a34.713,34.713,0,0,1-3.658-4.234,6.828,6.828,0,0,1-1.17-2.133,6.831,6.831,0,0,1,2.133,1.17c.183.129.37.268.562.413-.041.042-.082.085-.123.127a.586.586,0,1,0,.829.829q.11-.11.218-.223c.889.735,1.829,1.593,2.75,2.514.792.792,1.537,1.6,2.2,2.373q-.159.088-.317.18a.586.586,0,1,0,.586,1.015c.163-.094.325-.184.488-.272.255.323.491.638.7.939a6.827,6.827,0,0,1,1.17,2.133A6.831,6.831,0,0,1,18.938,18.953Z" transform="translate(0 0.001)" fill="#594036"/><path d="M162.882,282.979a.588.588,0,1,0,.02.05C162.9,283.014,162.889,282.994,162.882,282.979Z" transform="translate(-152.284 -266.073)" fill="#594036"/><path d="M370.676,103.213a.586.586,0,0,0,.829,0,8.339,8.339,0,0,1,4.979-2.034.586.586,0,1,0-.094-1.168,9.549,9.549,0,0,0-5.713,2.374A.586.586,0,0,0,370.676,103.213Z" transform="translate(-348.795 -94.149)" fill="#594036"/><path d="M492.087,101.471l-.051-.013a.586.586,0,1,0-.283,1.137l.03.008a.586.586,0,1,0,.3-1.132Z" transform="translate(-462.521 -95.496)" fill="#594036"/><path d="M64.09,45.965h.586v.586a.586.586,0,1,0,1.172,0v-.586h.586a.586.586,0,1,0,0-1.172h-.586v-.586a.586.586,0,0,0-1.172,0v.586H64.09a.586.586,0,1,0,0,1.172Z" transform="translate(-59.783 -41.065)" fill="#594036"/><path d="M298.088,142.963h.586v.586a.586.586,0,1,0,1.172,0v-.586h.586a.586.586,0,0,0,0-1.172h-.586V141.2a.586.586,0,1,0-1.172,0v.586h-.586a.586.586,0,0,0,0,1.172Z" transform="translate(-280.07 -132.38)" fill="#594036"/><path d="M399.431,398.79h-.586V398.2a.586.586,0,1,0-1.172,0v.586h-.586a.586.586,0,0,0,0,1.172h.586v.586a.586.586,0,1,0,1.172,0v-.586h.586a.586.586,0,0,0,0-1.172Z" transform="translate(-373.269 -374.32)" fill="#594036"/><path d="M361.727,3.517a1.758,1.758,0,1,0-1.758-1.758A1.76,1.76,0,0,0,361.727,3.517Zm0-2.344a.586.586,0,1,1-.586.586A.587.587,0,0,1,361.727,1.173Z" transform="translate(-338.877 -0.001)" fill="#594036"/><path d="M424.259,173.619a1.758,1.758,0,1,0,1.758,1.758A1.76,1.76,0,0,0,424.259,173.619Zm0,2.344a.586.586,0,1,1,.586-.586A.587.587,0,0,1,424.259,175.963Z" transform="translate(-397.745 -163.446)" fill="#594036"/><path d="M170.261,39.136a1.758,1.758,0,1,0-1.758-1.758A1.76,1.76,0,0,0,170.261,39.136Zm0-2.344a.586.586,0,1,1-.586.586A.587.587,0,0,1,170.261,36.792Z" transform="translate(-158.63 -33.533)" fill="#594036"/><path d="M430.362,284.644a.586.586,0,1,0-.586.586A.587.587,0,0,0,430.362,284.644Z" transform="translate(-404.042 -267.414)" fill="#594036"/><path d="M325.775,76.232a.586.586,0,1,0-.586-.586A.587.587,0,0,0,325.775,76.232Z" transform="translate(-306.135 -70.662)" fill="#594036"/><path d="M459.774,359.057a.586.586,0,1,0,.586.586A.587.587,0,0,0,459.774,359.057Z" transform="translate(-432.282 -338.018)" fill="#594036"/><path d="M129.778,11.173a.586.586,0,1,0-.586-.586A.587.587,0,0,0,129.778,11.173Z" transform="translate(-121.622 -9.415)" fill="#594036"/></g></g></svg>