<svg xmlns="http://www.w3.org/2000/svg" width="24" height="24" viewBox="0 0 24 24"><defs><style>.a{fill:#e8d1d8;}</style></defs><g transform="translate(0 -0.082)"><g transform="translate(0 0.082)"><g transform="translate(0 0)"><path class="a" d="M23.938,12.032A4.342,4.342,0,0,0,20.161,8.55,8.623,8.623,0,0,0,16.1,5.119a3.335,3.335,0,0,0,.824-2.132,2.829,2.829,0,0,0-2.812-2.9A2.668,2.668,0,0,0,12,1.1,2.667,2.667,0,0,0,9.891.082a2.829,2.829,0,0,0-2.812,2.9A3.334,3.334,0,0,0,7.9,5.119,8.624,8.624,0,0,0,3.838,8.55,4.342,4.342,0,0,0,.062,12.032a4.422,4.422,0,0,0,2.971,4.783L5.4,22.663A2.106,2.106,0,0,0,7.39,24.082h9.22A2.106,2.106,0,0,0,18.6,22.663l2.364-5.848A4.422,4.422,0,0,0,23.938,12.032ZM9.891,1.488c1.041,0,1.417,1.194,1.434,1.253a.7.7,0,0,0,1.349,0c.015-.051.39-1.253,1.434-1.253a1.427,1.427,0,0,1,1.406,1.5C15.514,4.178,14.082,5.2,12,6.9,9.917,5.2,8.485,4.178,8.485,2.987A1.427,1.427,0,0,1,9.891,1.488ZM7.39,22.676a.7.7,0,0,1-.667-.481c0-.014-.01-.028-.015-.041l-2.3-5.7A3.273,3.273,0,0,1,8.53,16.6l.924,6.074H7.39Zm5.734,0H10.876L9.94,16.522a3.272,3.272,0,0,1,4.12,0Zm4.168-.522q-.008.02-.015.041a.7.7,0,0,1-.667.481H14.546L15.47,16.6a3.273,3.273,0,0,1,4.127-.148Zm3.3-6.7a4.681,4.681,0,0,0-5.784-.127,4.682,4.682,0,0,0-5.623,0,4.681,4.681,0,0,0-5.784.127,3.009,3.009,0,0,1-1.96-3.165,2.977,2.977,0,0,1,2.839-2.36.7.7,0,0,0,.605-.377A7.243,7.243,0,0,1,8.967,6.214c.713.639,1.576,1.3,2.583,2.143a.7.7,0,0,0,.9,0c1.007-.84,1.87-1.5,2.583-2.143A7.244,7.244,0,0,1,19.111,9.55a.7.7,0,0,0,.605.377,2.977,2.977,0,0,1,2.839,2.36A3.008,3.008,0,0,1,20.6,15.451Z" transform="translate(0 -0.082)"/></g></g><g transform="translate(7.079 9.926)"><path class="a" d="M154.859,211.491l-2.812-1.406a.7.7,0,0,0-.629,1.258l2.812,1.406a.7.7,0,0,0,.629-1.258Z" transform="translate(-151.03 -210.011)"/></g><g transform="translate(15.514 9.926)"><path class="a" d="M333.583,210.221a.7.7,0,0,0-.994,0l-1.406,1.406a.7.7,0,0,0,.994.994l1.406-1.406A.7.7,0,0,0,333.583,210.221Z" transform="translate(-330.977 -210.015)"/></g><g transform="translate(4.268 11.332)"><g transform="translate(0 0)"><ellipse class="a" cx="0.703" cy="0.703" rx="0.703" ry="0.703"/></g></g><g transform="translate(12.703 9.926)"><ellipse class="a" cx="0.703" cy="0.703" rx="0.703" ry="0.703"/></g><g transform="translate(19.732 12.738)"><ellipse class="a" cx="0.703" cy="0.703" rx="0.703" ry="0.703"/></g></g></svg>