<svg xmlns="http://www.w3.org/2000/svg" xmlns:xlink="http://www.w3.org/1999/xlink" width="19.6" height="20" viewBox="0 0 19.6 20"><defs><clipPath id="a"><path d="M269.16,225.68a11.483,11.483,0,0,0-.182-2.045H259.56V227.5h5.382a4.6,4.6,0,0,1-2,3.018v2.509h3.232a9.753,9.753,0,0,0,2.982-7.35Zm0,0" transform="translate(-259.56 -223.635)" fill="none" clip-rule="evenodd"/></clipPath><clipPath id="b"><path d="M109.419,297.922a9.547,9.547,0,0,0,6.618-2.423l-3.232-2.509a6.033,6.033,0,0,1-8.982-3.168h-3.341v2.591a10,10,0,0,0,8.936,5.509Zm0,0" transform="translate(-100.483 -289.822)" fill="none" clip-rule="evenodd"/></clipPath><clipPath id="c"><path d="M85.954,182.448a5.911,5.911,0,0,1,0-3.8v-2.591H82.613a10.013,10.013,0,0,0,0,8.982l3.341-2.591Zm0,0" transform="translate(-81.549 -176.057)" fill="none" clip-rule="evenodd"/></clipPath><clipPath id="d"><path d="M109.419,81.966a5.4,5.4,0,0,1,3.823,1.5l2.868-2.868a9.61,9.61,0,0,0-6.691-2.6,10,10,0,0,0-8.936,5.509l3.341,2.591a5.959,5.959,0,0,1,5.6-4.123Zm0,0" transform="translate(-100.483 -77.989)" fill="none" clip-rule="evenodd"/></clipPath></defs><g transform="translate(-81.549 -77.989)"><g transform="translate(91.549 86.171)"><g transform="translate(0 0)" clip-path="url(#a)"><rect width="20.711" height="20.507" transform="translate(-5.556 -5.556)" fill="#3e82f1"/></g></g><g transform="translate(82.613 89.889)"><g transform="translate(0 0)" clip-path="url(#b)"><rect width="26.666" height="19.211" transform="translate(-5.556 -5.556)" fill="#32a753"/></g></g><g transform="translate(81.549 83.498)"><g transform="translate(0 0)" clip-path="url(#c)"><rect width="15.516" height="20.093" transform="translate(-5.556 -5.556)" fill="#f9bb00"/></g></g><g transform="translate(82.613 77.989)"><g transform="translate(0 0)" clip-path="url(#d)"><rect width="26.738" height="19.211" transform="translate(-5.556 -5.556)" fill="#e74133"/></g></g></g></svg>