<svg xmlns="http://www.w3.org/2000/svg" width="19" height="16" viewBox="0 0 19 16"><path d="M145.831,102.792a5.008,5.008,0,0,0-7.049,0l-.976.971a.035.035,0,0,1-.026.011.034.034,0,0,1-.025-.011l-.96-.956a5.007,5.007,0,0,0-7.049,0,4.949,4.949,0,0,0,0,7.014l7.218,7.183a1.16,1.16,0,0,0,1.635,0l3.967-3.948c.219-.218,3.883-4.525,3.664-4.743s-4.238,3.737-4.456,3.955l-3.967,3.948a.035.035,0,0,1-.025.01.034.034,0,0,1-.026-.011l-7.218-7.183a3.837,3.837,0,0,1,0-5.439,3.882,3.882,0,0,1,5.465,0l.96.956a1.16,1.16,0,0,0,1.635,0l.976-.971a3.883,3.883,0,0,1,5.465,0,3.837,3.837,0,0,1,0,5.439l-1.672,1.664c-.219.218-4.849,5.317-4.63,5.534s5.2-4.529,5.422-4.747l1.672-1.664A4.949,4.949,0,0,0,145.831,102.792Z" transform="translate(-128.288 -101.342)" fill="#594036"/></svg>