<svg xmlns="http://www.w3.org/2000/svg" width="19" height="19" viewBox="0 0 19 19"><path d="M222.65,343.22a1,1,0,0,0,0,1.992,1,1,0,1,0,0-1.992Z" transform="translate(-213.441 -330.483)" fill="#594036"/><path d="M186.57,140c-1.746,0-2.548,1.035-2.548,1.733a.742.742,0,0,0,.776.737c.7,0,.414-1,1.733-1,.647,0,1.164.285,1.164.88,0,.7-.724,1.1-1.151,1.462a2.368,2.368,0,0,0-.867,1.966c0,.673.181.867.711.867.634,0,.763-.285.763-.53a1.625,1.625,0,0,1,.724-1.617,3.311,3.311,0,0,0,1.449-2.367C189.325,140.92,188.226,140,186.57,140Z" transform="translate(-177.193 -134.807)" fill="#594036"/><path d="M9.5,0A9.495,9.495,0,0,0,0,9.5v8.758A.742.742,0,0,0,.742,19H9.5a9.5,9.5,0,0,0,0-19Zm0,17.516H1.484V9.5A8.016,8.016,0,1,1,9.5,17.516Z" fill="#594036"/></svg>