<svg xmlns="http://www.w3.org/2000/svg" width="19" height="19" viewBox="0 0 19 19"><g transform="translate(0 -0.008)"><path d="M285.446,209.2h-7.521a.594.594,0,0,1,0-1.187h7.521a.594.594,0,0,1,0,1.188Zm0,0" transform="translate(-267.041 -200.281)" fill="#594036"/><path d="M400.6,135.1a.594.594,0,0,1-.42-1.014l2.549-2.549-2.549-2.549a.594.594,0,0,1,.84-.84l2.969,2.969a.594.594,0,0,1,0,.84l-2.969,2.969a.59.59,0,0,1-.42.175Zm0,0" transform="translate(-385.161 -123.213)" fill="#594036"/><path d="M6.333,19.008a1.631,1.631,0,0,1-.491-.074L1.078,17.347A1.6,1.6,0,0,1,0,15.841V1.591A1.585,1.585,0,0,1,1.583.008a1.633,1.633,0,0,1,.491.074L6.838,1.669A1.6,1.6,0,0,1,7.916,3.175v14.25a1.585,1.585,0,0,1-1.583,1.583ZM1.583,1.2a.4.4,0,0,0-.4.4v14.25a.411.411,0,0,0,.275.382L6.2,17.8a.43.43,0,0,0,.129.017.4.4,0,0,0,.4-.4V3.175a.411.411,0,0,0-.275-.382L1.712,1.213A.43.43,0,0,0,1.583,1.2Zm0,0" transform="translate(0 0)" fill="#594036"/><path d="M37.751,6.341a.594.594,0,0,1-.594-.594V2.185a.991.991,0,0,0-.989-.99H27.262a.594.594,0,0,1,0-1.187h8.906a2.179,2.179,0,0,1,2.177,2.177V5.748A.594.594,0,0,1,37.751,6.341Zm0,0" transform="translate(-25.679)" fill="#594036"/><path d="M185.092,283.673h-3.167a.594.594,0,0,1,0-1.187h3.167a.991.991,0,0,0,.989-.99v-3.562a.594.594,0,1,1,1.187,0V281.5A2.179,2.179,0,0,1,185.092,283.673Zm0,0" transform="translate(-174.603 -267.04)" fill="#594036"/></g></svg>