<svg xmlns="http://www.w3.org/2000/svg" width="22" height="22" viewBox="0 0 22 22"><path d="M11,0A11,11,0,0,0,1.459,16.476l-1.417,4.4a.859.859,0,0,0,1.081,1.081l4.4-1.417A11,11,0,1,0,11,0Zm0,20.281a9.254,9.254,0,0,1-4.913-1.406.86.86,0,0,0-.719-.089L2.191,19.809l1.023-3.177a.86.86,0,0,0-.089-.719A9.282,9.282,0,1,1,11,20.281ZM12.074,11A1.074,1.074,0,1,1,11,9.926,1.074,1.074,0,0,1,12.074,11Zm4.3,0A1.074,1.074,0,1,1,15.3,9.926,1.074,1.074,0,0,1,16.371,11ZM7.777,11A1.074,1.074,0,1,1,6.7,9.926,1.074,1.074,0,0,1,7.777,11Zm0,0" fill="#fff"/></svg>