<svg xmlns="http://www.w3.org/2000/svg" width="28" height="26" viewBox="0 0 28 26"><path d="M27.677,23.952a1.119,1.119,0,0,1-1.547,0l-.865-.843v9.151c0,.585-.564,0-1.168,0s-1.019.585-1.019,0V20.973L14.76,12.865a1.12,1.12,0,0,0-1.419,0L4.92,21c0,.01,0,.02,0,.031V32.256a2.156,2.156,0,0,0,2.188,2.118H20.891a2.156,2.156,0,0,0,2.187-2.118,1.094,1.094,0,0,1,2.188,0,4.312,4.312,0,0,1-4.375,4.236H7.109a4.312,4.312,0,0,1-4.375-4.236V23.112l-.868.839a1.119,1.119,0,0,1-1.547,0,1.035,1.035,0,0,1,0-1.5S11.851,11.31,11.867,11.3a3.359,3.359,0,0,1,4.374.009c.015.013,11.441,11.149,11.441,11.149a1.035,1.035,0,0,1-.005,1.5Z" transform="translate(0 -10.492)" fill="#fff"/></svg>