<svg xmlns="http://www.w3.org/2000/svg" width="21" height="26" viewBox="0 0 21 26"><defs><style>.a{fill:#594036;}</style></defs><g transform="translate(-47.834)"><g transform="translate(47.834 6.701)"><path class="a" d="M68.557,132.269a1,1,0,0,0-.721-.31h-19a1,1,0,0,0-.72.309,1.009,1.009,0,0,0-.278.736c0,.109.435,10.91.632,15.37a2.973,2.973,0,0,0,2.995,2.883H65.173a2.97,2.97,0,0,0,2.994-2.871l.666-15.379A1.01,1.01,0,0,0,68.557,132.269Zm-2.385,16.043a.991.991,0,0,1-1,.936H51.462a.994.994,0,0,1-1-.949c-.161-3.645-.477-11.5-.59-14.329H66.793Z" transform="translate(-47.834 -131.959)"/></g><g transform="translate(52.493)"><path class="a" d="M146.032,0a5.851,5.851,0,0,0-5.824,5.863v7.472a1,1,0,1,0,2,0V5.863a3.827,3.827,0,1,1,7.654,0v7.472a1,1,0,1,0,2,0V5.863A5.851,5.851,0,0,0,146.032,0Z" transform="translate(-140.208)"/></g></g></svg>