<svg xmlns="http://www.w3.org/2000/svg" width="16" height="19" viewBox="0 0 16 19"><g transform="translate(0 0.001)"><path d="M15.982,5.154V5.139c-.008-.183-.014-.376-.017-.59a2,2,0,0,0-1.875-1.973A7.685,7.685,0,0,1,8.83.335L8.818.323a1.193,1.193,0,0,0-1.634,0L7.171.335A7.686,7.686,0,0,1,1.912,2.576,2,2,0,0,0,.037,4.549c0,.213-.009.406-.017.59v.034A20.811,20.811,0,0,0,.842,12.69a9.581,9.581,0,0,0,2.27,3.575,11.849,11.849,0,0,0,4.442,2.657,1.364,1.364,0,0,0,.182.05,1.33,1.33,0,0,0,.529,0,1.368,1.368,0,0,0,.183-.05,11.857,11.857,0,0,0,4.437-2.658,9.594,9.594,0,0,0,2.27-3.576A20.842,20.842,0,0,0,15.982,5.154ZM14.12,12.3A9.157,9.157,0,0,1,8.084,17.87l-.035.01a.245.245,0,0,1-.1,0l-.035-.009A9.146,9.146,0,0,1,1.876,12.3,19.635,19.635,0,0,1,1.121,5.2V5.183c.009-.193.014-.4.017-.617a.891.891,0,0,1,.834-.876,9.583,9.583,0,0,0,3.283-.73A8.585,8.585,0,0,0,7.932,1.141a.1.1,0,0,1,.136,0,8.588,8.588,0,0,0,2.676,1.818,9.583,9.583,0,0,0,3.283.73.89.89,0,0,1,.834.876c0,.223.009.425.018.617A19.644,19.644,0,0,1,14.12,12.3Zm0,0" transform="translate(0 0)" fill="#594036"/><path d="M95.081,128.41a4.735,4.735,0,1,0,4.683,4.735A4.714,4.714,0,0,0,95.081,128.41Zm0,8.355a3.62,3.62,0,1,1,3.58-3.62A3.6,3.6,0,0,1,95.081,136.765Zm0,0" transform="translate(-87.081 -123.646)" fill="#594036"/><path d="M157.379,212.154l-2.175,2.2-.59-.6a.547.547,0,0,0-.78,0,.562.562,0,0,0,0,.788l.98.991a.547.547,0,0,0,.78,0l2.565-2.594a.562.562,0,0,0,0-.788A.547.547,0,0,0,157.379,212.154Zm0,0" transform="translate(-148.033 -204.125)" fill="#594036"/></g></svg>