<svg xmlns="http://www.w3.org/2000/svg" width="19" height="19" viewBox="0 0 19 19"><path d="M15.6,19H3.233A3.345,3.345,0,0,1,0,15.65V13.94a.7.7,0,0,1,.7-.7H3.073V.726A.7.7,0,0,1,4.235.2L6.191,1.941,8.149.179a.7.7,0,0,1,.931,0l1.956,1.76L12.993.179a.7.7,0,0,1,.931,0l1.959,1.762L17.838.2A.7.7,0,0,1,19,.726V15.65A3.344,3.344,0,0,1,15.67,19ZM4.47,13.236h8.569a.7.7,0,0,1,.7.7v1.71a1.933,1.933,0,1,0,3.865,0V2.286l-1.26,1.122a.7.7,0,0,1-.929,0l-1.956-1.76L11.5,3.405a.7.7,0,0,1-.931,0L8.615,1.646,6.659,3.405a.694.694,0,0,1-.928,0L4.47,2.286Zm8.49,4.358a3.346,3.346,0,0,1-.62-1.945V14.642H1.4V15.65A1.941,1.941,0,0,0,3.33,17.594ZM7.31,10.964a.7.7,0,1,1,0-1.405h7.613a.7.7,0,0,1,0,1.405Zm0-3.279a.7.7,0,1,1,0-1.405h4.334a.7.7,0,0,1,0,1.405Z" transform="translate(0 0)" fill="#594036"/></svg>