<svg xmlns="http://www.w3.org/2000/svg" width="19" height="19" viewBox="0 0 19 19"><path d="M2.032,19A2.093,2.093,0,0,1,0,16.856V9.145A2.093,2.093,0,0,1,2.032,7H2V2.145A2.093,2.093,0,0,1,4.032,0H16.968A2.093,2.093,0,0,1,19,2.145V9.856A2.1,2.1,0,0,1,17,12h0V10.813a.932.932,0,0,0,.876-.957V4.688H3.124V7H14.968A2.093,2.093,0,0,1,17,9.145v7.711A2.093,2.093,0,0,1,14.968,19Zm-.908-2.144a.935.935,0,0,0,.908.958H14.968a.935.935,0,0,0,.908-.958V11.688H1.124Zm0-7.711V10H15.876V9.145a.936.936,0,0,0-.908-.958H2.032A.936.936,0,0,0,1.124,9.145Zm2-7V3H17.876V2.145a.935.935,0,0,0-.908-.959H4.032A.936.936,0,0,0,3.124,2.145Zm-.6,14.568a.2.2,0,0,1-.2-.211v-.641a.205.205,0,0,1,.2-.211H5.6a.206.206,0,0,1,.2.211V16.5a.205.205,0,0,1-.2.211Z" fill="#594036"/></svg>