<svg xmlns="http://www.w3.org/2000/svg" width="19" height="19" viewBox="0 0 19 19"><g transform="translate(-2.25 -2.25)"><path d="M11.75,2.25a9.5,9.5,0,1,0,9.5,9.5A9.5,9.5,0,0,0,11.75,2.25ZM7.679,18.793V17.436a2.185,2.185,0,0,1,2.036-2.293h4.071a2.185,2.185,0,0,1,2.036,2.3V18.8a8.089,8.089,0,0,1-8.143,0Zm9.5-.991v-.414a3.535,3.535,0,0,0-3.393-3.6H9.714a3.529,3.529,0,0,0-3.393,3.6v.4a8.143,8.143,0,1,1,10.857,0Z" fill="#594036"/><path d="M15.768,7.875a3.393,3.393,0,1,0,3.393,3.393,3.393,3.393,0,0,0-3.393-3.393Zm0,5.429A2.036,2.036,0,1,1,17.8,11.268,2.036,2.036,0,0,1,15.768,13.3Z" transform="translate(-4.018 -2.232)" fill="#594036"/></g></svg>