<svg xmlns="http://www.w3.org/2000/svg" width="30" height="30" viewBox="0 0 30 30"><path d="M25.609,4.616A14.306,14.306,0,0,1,30,15.144a14.306,14.306,0,0,1-4.391,10.528,14.459,14.459,0,0,1-10.574,4.366,14.4,14.4,0,0,1-7.1-1.831L0,30.25l2.108-7.676A14.825,14.825,0,0,1,.141,15.109,14.325,14.325,0,0,1,4.5,4.616,14.335,14.335,0,0,1,15.035.25,14.462,14.462,0,0,1,25.609,4.616ZM15.035,27.5a12.02,12.02,0,0,0,8.783-3.627,11.9,11.9,0,0,0,3.653-8.768,11.906,11.906,0,0,0-3.653-8.768,12.013,12.013,0,0,0-8.783-3.626A11.9,11.9,0,0,0,6.288,6.341,11.961,11.961,0,0,0,2.67,15.109a12.228,12.228,0,0,0,1.9,6.619l.281.423L3.583,26.729l4.707-1.2.422.211a12.135,12.135,0,0,0,6.323,1.76Zm6.815-9.3a2.2,2.2,0,0,1,.7.493q.281.423-.211,1.76a2.418,2.418,0,0,1-1.054,1.092,4.921,4.921,0,0,1-1.475.669,6.241,6.241,0,0,1-2.319-.141q-1.195-.423-2.108-.775-.562-.281-1.089-.6t-1.018-.634a9.162,9.162,0,0,1-.913-.669q-.422-.352-.808-.7t-.738-.739q-.352-.388-.6-.669t-.492-.6q-.246-.317-.386-.493a3.286,3.286,0,0,1-.246-.352l-.105-.176A6.526,6.526,0,0,1,7.448,11.8,4.418,4.418,0,0,1,8.783,8.7a1.263,1.263,0,0,1,.984-.493,2.957,2.957,0,0,1,.7.07.9.9,0,0,1,.843.634,6.032,6.032,0,0,1,.422.915l.492,1.232.211.6a.634.634,0,0,1,.07.634,2.284,2.284,0,0,1-.352.634l-.211.211-.211.247-.141.176q-.422.423-.211.775a10.675,10.675,0,0,0,2.108,2.605,16.077,16.077,0,0,0,3.021,1.831.65.65,0,0,0,.773-.07q.843-1.056,1.195-1.479a.636.636,0,0,1,.843-.211Q19.742,17.222,21.85,18.208Z" transform="translate(0 -0.25)" fill="#594036"/></svg>